<?xml version="1.0" standalone="no"?>
<!DOCTYPE svg PUBLIC "-//W3C//DTD SVG 20010904//EN"
 "http://www.w3.org/TR/2001/REC-SVG-20010904/DTD/svg10.dtd">
<svg version="1.0" xmlns="http://www.w3.org/2000/svg"
 width="584.000000pt" height="584.000000pt" viewBox="0 0 584.000000 584.000000"
 preserveAspectRatio="xMidYMid meet">
<metadata>
Created by potrace 1.14, written by Peter Selinger 2001-2017
</metadata>
<g transform="translate(0.000000,584.000000) scale(0.100000,-0.100000)"
fill="#000000" stroke="none">
<path d="M2769 5836 c-2 -2 -31 -7 -64 -10 -86 -10 -266 -53 -345 -83 -8 -3
-19 -7 -25 -8 -23 -6 -163 -71 -197 -92 -21 -13 -40 -23 -43 -23 -12 0 -145
-91 -216 -148 -124 -99 -294 -283 -343 -371 -6 -11 -30 -51 -53 -88 -36 -60
-63 -113 -106 -213 -5 -14 -11 -27 -12 -30 0 -3 -12 -36 -25 -75 -13 -38 -25
-72 -25 -75 -1 -3 -7 -32 -15 -65 -7 -33 -15 -67 -17 -75 -2 -8 -5 -28 -7 -45
-2 -16 -7 -52 -11 -80 -4 -27 -8 -109 -9 -182 -1 -73 -5 -135 -9 -139 -3 -4
-12 -2 -19 3 -7 6 -53 32 -103 58 -49 26 -174 94 -278 151 -104 57 -190 104
-191 104 -2 0 -25 12 -52 28 -49 27 -50 27 -246 28 l-198 0 0 -1338 0 -1338
265 0 c246 0 265 1 265 18 1 9 1 457 2 995 0 537 2 977 4 977 4 0 130 -65 199
-104 93 -51 186 -102 270 -147 l90 -48 2 -508 c3 -755 12 -1463 18 -1508 53
-375 285 -783 582 -1021 26 -21 50 -42 53 -45 28 -32 256 -164 365 -211 59
-25 185 -66 224 -73 19 -3 38 -8 43 -11 4 -3 56 -13 116 -24 82 -14 147 -17
282 -15 96 2 191 6 210 10 19 3 44 8 55 10 114 19 287 73 405 127 65 30 229
124 265 152 11 9 49 39 85 67 36 28 89 75 119 105 29 30 55 54 58 54 2 0 43
-19 91 -41 48 -23 91 -42 97 -43 5 -1 16 -5 22 -9 10 -7 52 -21 128 -43 38
-12 136 -35 165 -40 19 -3 41 -7 48 -9 50 -17 324 -24 442 -12 150 15 362 67
455 111 17 8 45 20 63 26 l32 12 0 1962 0 1962 -197 0 -198 -1 -80 -44 c-44
-24 -109 -59 -145 -79 -36 -19 -83 -45 -105 -57 -39 -22 -76 -42 -250 -135
-44 -24 -84 -47 -89 -51 -28 -25 -34 -7 -34 89 1 93 -9 253 -18 296 -3 12 -7
39 -10 60 -4 22 -17 78 -31 125 -13 47 -25 91 -26 96 -13 54 -84 205 -161 340
-54 95 -138 199 -251 310 -117 116 -120 119 -245 204 -168 114 -390 208 -585
247 -11 2 -31 6 -45 9 -14 3 -43 8 -65 11 -45 7 -370 15 -376 10z m301 -540
c35 -4 68 -10 72 -12 4 -3 16 -7 26 -9 37 -7 108 -26 127 -35 21 -9 57 -22 65
-25 17 -4 126 -61 128 -67 2 -5 8 -8 13 -8 15 0 147 -101 205 -156 99 -95 207
-254 254 -375 74 -187 87 -271 89 -606 l2 -271 -118 -63 c-65 -34 -135 -73
-155 -86 -21 -13 -38 -21 -38 -17 0 3 -12 -3 -27 -14 -16 -10 -71 -42 -123
-69 -52 -28 -115 -62 -140 -75 -44 -25 -184 -101 -345 -188 -44 -24 -104 -56
-134 -71 l-54 -28 -66 36 c-36 20 -79 43 -96 53 -16 10 -64 35 -105 57 -41 22
-129 70 -195 106 -66 35 -147 79 -180 97 -33 18 -82 45 -110 60 -27 15 -79 43
-115 62 -36 19 -92 50 -125 68 -33 18 -77 42 -97 53 -21 12 -38 28 -38 36 -3
88 1 532 5 551 2 14 6 43 10 65 19 131 96 321 183 450 99 147 290 309 452 383
62 28 124 51 145 53 6 1 18 5 28 11 21 11 38 14 157 32 88 13 189 13 300 2z
m2075 -2981 l0 -1403 -60 -10 c-48 -8 -320 -10 -385 -2 -43 5 -177 42 -216 59
-41 19 -44 22 -38 48 4 15 10 33 14 38 13 17 78 230 85 277 4 23 8 45 10 48
15 24 23 610 25 1833 l0 219 30 11 c17 6 30 15 30 19 0 4 4 8 9 8 4 0 111 56
237 125 125 69 232 125 236 125 4 0 8 5 8 12 0 6 3 8 8 4 4 -4 7 -639 7 -1411z
m-3256 759 c47 -26 140 -77 206 -113 66 -36 122 -66 125 -66 3 0 16 -8 30 -16
54 -34 490 -269 500 -269 5 0 10 -4 10 -10 0 -5 5 -10 10 -10 6 0 42 -18 80
-39 l70 -40 61 35 c33 18 62 34 64 34 2 0 30 15 62 34 32 18 99 55 148 81 50
27 104 56 120 65 49 27 245 134 318 174 154 83 205 111 270 148 38 21 72 38
76 38 4 0 6 -316 5 -702 -3 -682 -7 -876 -18 -928 -27 -127 -39 -170 -46 -175
-5 -3 -61 29 -126 71 -65 43 -181 110 -258 149 -147 75 -389 175 -424 175 -12
0 -23 4 -26 9 -3 5 -16 11 -28 14 -13 2 -70 17 -128 32 -58 15 -112 28 -120
29 -8 1 -31 5 -50 9 -42 8 -78 14 -139 23 -25 3 -57 8 -71 10 -147 24 -482 23
-700 -2 -30 -4 -68 -7 -85 -8 l-30 -1 -2 648 c-2 356 0 647 3 647 4 0 46 -21
93 -46z m548 -1758 c56 -4 110 -8 120 -10 37 -7 99 -17 131 -21 60 -8 241 -54
345 -89 203 -68 386 -159 572 -284 44 -30 82 -56 85 -59 4 -4 -43 -50 -96 -93
-92 -74 -293 -171 -405 -194 -13 -3 -35 -8 -49 -11 -83 -19 -271 -25 -375 -11
-157 20 -342 90 -458 172 -26 19 -49 34 -52 34 -19 0 -180 162 -235 236 -49
66 -123 198 -143 258 -15 43 -15 46 1 47 9 0 26 2 37 5 37 7 110 15 189 19 43
2 80 6 82 7 4 5 140 1 251 -6z"/>
</g>
</svg>
