<svg xmlns="http://www.w3.org/2000/svg">
  <symbol id="qamon" viewBox="0 0 109 35">
    <path d="M16.054 3.11c3.628 0 6.58 2.96 6.583 6.601-.008 4.723-.029 11.97-.054 14.628-.023 2.427-1.341 4.68-3.485 5.804a6.54 6.54 0 0 1-3.044.75c-1.024 0-2-.238-2.872-.663-2.239-1.091-3.635-3.398-3.658-5.896-.025-2.66-.045-9.902-.053-14.624.002-3.64 2.954-6.601 6.583-6.601m0-3.109c-5.347 0-9.68 4.35-9.68 9.714 0 0 .024 15.388.074 15.786.595 4.792 4.669 8.5 9.606 8.5s9.01-3.708 9.606-8.5c.05-.398.074-15.786.074-15.786 0-5.364-4.334-9.713-9.68-9.713V0ZM29.027 12.306v11.621h3.098V10.598l-3.098 1.708Z"/>
    <path d="M29.027 12.306v16.886h3.098V10.598l-3.098 1.708ZM0 10.616V8.348h2.287l13.776 7.492v3.536L0 10.616Z"/>
    <path d="m16.06 15.84 13.777-7.492h2.287v2.268l-16.063 8.76V15.84Z"/>
    <path d="M0 10.598v13.329h3.098v-11.64L0 10.597Z"/>
    <path d="M32.14 31.174a9.916 9.916 0 0 1-4.215.942 9.87 9.87 0 0 1-4.766-1.225 10.069 10.069 0 0 1-1.339-.881l-1.013-.788a13.883 13.883 0 0 0-10.76-2.739l-.188.032-3.091.51a9.57 9.57 0 0 1-.315-1.523 48.275 48.275 0 0 1-.025-1.572l3.094-.51.023-.004a16.99 16.99 0 0 1 13.16 3.35l1.013.788c.37.287.76.531 1.165.735 2.031 1.012 5.223.502 7.246-.667l.01 3.552Z"/>
    <path d="M54.486 12.568c0 1.692-.532 3.171-1.595 4.438l1.335 1.41-1.818 1.636-1.41-1.486a6.543 6.543 0 0 1-3.264.847c-1.855 0-3.445-.659-4.768-1.975C41.656 16.11 41 14.486 41 12.568c0-1.918.655-3.535 1.966-4.852 1.311-1.328 2.9-1.993 4.768-1.993 1.867 0 3.456.665 4.767 1.993 1.323 1.317 1.985 2.934 1.985 4.852Zm-6.752 4.306c.494 0 .977-.081 1.447-.244l-2.134-2.257 1.818-1.636 2.282 2.407c.52-.752.779-1.61.779-2.576 0-1.254-.402-2.288-1.206-3.103-.804-.815-1.8-1.222-2.986-1.222-1.188 0-2.183.407-2.987 1.222-.804.815-1.206 1.85-1.206 3.103 0 1.24.402 2.269 1.206 3.084.804.815 1.8 1.222 2.987 1.222ZM67.973 19.209h-2.865l-.802-2.427h-5.328l-.802 2.427H55.33l4.68-13.486h3.265l4.698 13.486ZM61.652 8.786l-1.834 5.51h3.667l-1.833-5.51ZM78.837 5.723h2.62V19.21H78.93v-8.746l-3.636 6.26h-.296l-3.635-6.241v8.727h-2.547V5.723h2.62l3.71 6.377 3.692-6.377ZM94.664 17.264c-1.31 1.297-2.906 1.945-4.786 1.945-1.88 0-3.475-.648-4.786-1.945-1.298-1.321-1.948-2.92-1.948-4.798 0-1.89.65-3.483 1.948-4.78 1.311-1.308 2.906-1.963 4.786-1.963 1.88 0 3.475.655 4.786 1.964 1.311 1.296 1.966 2.89 1.966 4.779 0 1.89-.655 3.489-1.966 4.798Zm-7.772-1.741c.791.79 1.787 1.185 2.986 1.185 1.2 0 2.195-.395 2.987-1.185.803-.803 1.205-1.822 1.205-3.057 0-1.235-.401-2.254-1.205-3.056-.804-.803-1.8-1.205-2.987-1.205s-2.183.402-2.986 1.205c-.804.802-1.206 1.821-1.206 3.056s.402 2.254 1.206 3.057ZM105.858 13.95V5.723h2.571V19.21h-1.956l-5.588-8.246v8.246h-2.57V5.723h1.955l5.588 8.227Z"/>
    <path d="M45.158 26.06c.572 0 1.082.125 1.529.374.455.25.81.601 1.067 1.056.257.455.385.979.385 1.573s-.128 1.122-.385 1.584a2.687 2.687 0 0 1-1.067 1.056c-.447.25-.957.374-1.529.374-.403 0-.774-.07-1.111-.209a2.135 2.135 0 0 1-.836-.627V32h-1.309v-8.162h1.375v3.003a2.32 2.32 0 0 1 .825-.583 2.763 2.763 0 0 1 1.056-.198Zm-.154 4.84c.506 0 .92-.169 1.243-.506.33-.337.495-.781.495-1.331 0-.55-.165-.994-.495-1.331-.323-.337-.737-.506-1.243-.506-.33 0-.627.077-.891.231-.264.147-.473.36-.627.638a1.969 1.969 0 0 0-.231.968c0 .367.077.69.231.968.154.279.363.495.627.649.264.147.561.22.891.22Zm9.961-1.804c0 .095-.007.231-.022.407h-4.609c.08.433.29.777.627 1.034.345.25.77.374 1.276.374.645 0 1.177-.213 1.595-.638l.737.847a2.483 2.483 0 0 1-1.001.715 3.647 3.647 0 0 1-1.364.242c-.645 0-1.214-.128-1.705-.385a2.822 2.822 0 0 1-1.144-1.067 3.092 3.092 0 0 1-.396-1.562c0-.572.128-1.085.385-1.54a2.798 2.798 0 0 1 1.089-1.078 3.161 3.161 0 0 1 1.562-.385c.572 0 1.082.128 1.529.385.455.25.807.605 1.056 1.067.257.455.385.983.385 1.584Zm-2.97-1.936c-.44 0-.814.132-1.122.396-.3.257-.484.601-.55 1.034h3.333a1.621 1.621 0 0 0-.539-1.034c-.3-.264-.675-.396-1.122-.396Zm7.822 4.521c-.161.132-.36.231-.594.297-.227.066-.47.099-.726.099-.645 0-1.144-.169-1.496-.506-.352-.337-.528-.829-.528-1.474V27.27h-.968v-1.1h.968v-1.342h1.375v1.342h1.573v1.1h-1.573v2.794c0 .286.07.506.209.66.14.147.34.22.605.22.308 0 .565-.08.77-.242l.385.979Zm3.375-5.621c.865 0 1.525.209 1.98.627.462.41.693 1.034.693 1.87V32h-1.298v-.715a1.63 1.63 0 0 1-.726.594c-.308.132-.682.198-1.122.198-.44 0-.825-.073-1.155-.22a1.879 1.879 0 0 1-.77-.627 1.642 1.642 0 0 1-.264-.913c0-.528.194-.95.583-1.265.396-.323 1.016-.484 1.859-.484h1.518v-.088c0-.41-.125-.726-.374-.946-.242-.22-.605-.33-1.09-.33-.33 0-.655.051-.978.154a2.4 2.4 0 0 0-.803.429l-.54-1.001a3.337 3.337 0 0 1 1.112-.539 4.942 4.942 0 0 1 1.375-.187Zm-.187 5.016c.345 0 .649-.077.913-.231.271-.161.462-.389.572-.682v-.682h-1.42c-.791 0-1.187.26-1.187.781 0 .25.099.447.297.594.198.147.473.22.825.22Z"/>
  </symbol>
  <symbol id="qamonIcon" viewBox="0 0 138 146">
    <path
      d="M138 118.61V35.85h-9.81l-17.63 9.58v-3.72A41.64 41.64 0 0 0 69 0a41.64 41.64 0 0 0-41.62 41.71v3.69L9.82 35.85H0v66.89h13.3v-49.9l14.12 7.7c0 14.06.09 32.45.17 42.21-.05 5.06.07 8.81 1.46 13.29a41.5 41.5 0 0 0 70.37 16.6 42.44 42.44 0 0 0 38.58 1.22Zm-56 10.83a27.92 27.92 0 0 1-39.48-15.62l.59-.1a59.64 59.64 0 0 1 45.29 11.06 27.52 27.52 0 0 1-6.4 4.66ZM69 83.2l28.16-15.36c0 14.94-.11 29.6-.17 36.68a29 29 0 0 1-1.51 8.92A72.94 72.94 0 0 0 41 100.55h-.1c-.06-7.82-.1-20.18-.14-32.75L69 83.2V68L40.7 52.64V41.7A28.35 28.35 0 0 1 69 13.35 28.36 28.36 0 0 1 97.22 41.7v11L69 68Zm55.67 19.55v20.48c-6.32 1.07-12.87.71-17.81-1.76a41.81 41.81 0 0 0 3.37-12c.14-1.11.23-29.26.28-48.93l14.17-7.73Z"/>
  </symbol>
  <symbol id="inbox" viewBox="0 0 22 18">
    <path
      d="M13 13H9a1 1 0 0 1-.83-.45L6.46 10H1a1 1 0 0 1 0-2h6a1 1 0 0 1 .83.45L9.54 11h2.92l1.71-2.55A1 1 0 0 1 15 8h6a1 1 0 0 1 0 2h-5.46l-1.71 2.55A1 1 0 0 1 13 13Z"/>
    <path
      d="M19 18H3a3 3 0 0 1-3-3V9a1 1 0 0 1 .11-.45l3.45-6.89A3 3 0 0 1 6.24 0h9.52a3 3 0 0 1 2.69 1.66l3.44 6.89A1 1 0 0 1 22 9v6a3 3 0 0 1-3 3ZM2 9.24V15a1 1 0 0 0 1 1h16a1 1 0 0 0 1-1V9.24l-3.34-6.68a1 1 0 0 0-.9-.56H6.24a1 1 0 0 0-.89.55Zm2.45-7.13Z"/>
  </symbol>
  <symbol id="sent" viewBox="0 0 22 22">
    <path d="M10 13a1 1 0 0 1-.71-.29 1 1 0 0 1 0-1.42l11-11a1 1 0 1 1 1.42 1.42l-11 11A1 1 0 0 1 10 13Z"/>
    <path
      d="M14 22a1 1 0 0 1-.91-.59l-3.85-8.65L.59 8.91a1 1 0 0 1 .08-1.85l20-7a1 1 0 0 1 1.27 1.27l-7 20A1 1 0 0 1 14 22ZM3.71 8.11l6.7 3a1 1 0 0 1 .5.5l3 6.7 5.46-15.68Z"/>
  </symbol>
  <symbol id="bookmarks" viewBox="0 0 16 20">
    <path
      d="M15 20a.94.94 0 0 1-.58-.19L8 15.23l-6.42 4.58A1 1 0 0 1 0 19V3a3 3 0 0 1 3-3h10a3 3 0 0 1 3 3v16a1 1 0 0 1-.54.89A1.07 1.07 0 0 1 15 20Zm-7-7a1 1 0 0 1 .58.19L14 17.06V3a1.05 1.05 0 0 0-.29-.71A1.05 1.05 0 0 0 13 2H3a1.05 1.05 0 0 0-.71.29A1.05 1.05 0 0 0 2 3v14.06l5.42-3.87A1 1 0 0 1 8 13Z"/>
  </symbol>
  <symbol id="plus" viewBox="0 0 12 12">
    <path d="M6 12a.76.76 0 0 1-.75-.75V.75a.75.75 0 0 1 1.5 0v10.5A.76.76 0 0 1 6 12Z"/>
    <path d="M11.25 6.75H.75a.75.75 0 0 1 0-1.5h10.5a.75.75 0 0 1 0 1.5Z"/>
  </symbol>
  <symbol id="contacts" viewBox="0 0 19.83 16.5">
    <path
      d="M14.08 16.5a.76.76 0 0 1-.75-.75v-1.67a2.58 2.58 0 0 0-2.58-2.58H4.08a2.59 2.59 0 0 0-2.58 2.58v1.67a.76.76 0 0 1-.75.75.76.76 0 0 1-.75-.75v-1.67a4 4 0 0 1 1.2-2.88A4 4 0 0 1 4.08 10h6.67a4.08 4.08 0 0 1 4.08 4.08v1.67a.75.75 0 0 1-.75.75ZM7.42 8.17a4.09 4.09 0 1 1 4.08-4.09 4.09 4.09 0 0 1-4.08 4.09Zm0-6.67A2.59 2.59 0 1 0 10 4.08 2.59 2.59 0 0 0 7.42 1.5ZM19.08 16.5a.76.76 0 0 1-.75-.75v-1.67a2.58 2.58 0 0 0-.54-1.58 2.62 2.62 0 0 0-1.4-.92.74.74 0 0 1-.53-.91.75.75 0 0 1 .91-.54A4.18 4.18 0 0 1 19 11.58a4.1 4.1 0 0 1 .85 2.5v1.67a.75.75 0 0 1-.77.75ZM13.25 8.07a.77.77 0 0 1-.73-.57.75.75 0 0 1 .54-.91A2.6 2.6 0 0 0 15 4.09a2.6 2.6 0 0 0-1.95-2.51.75.75 0 0 1-.54-.91.76.76 0 0 1 .92-.54 4.09 4.09 0 0 1 3.07 4A4.09 4.09 0 0 1 13.44 8Z"/>
  </symbol>
  <symbol id="folders" viewBox="0 0 18.17 16.5">
    <path fill="#202020"
          d="M15.75 16.5H2.42a2.37 2.37 0 0 1-1.71-.71A2.37 2.37 0 0 1 0 14.08V2.42A2.37 2.37 0 0 1 .71.71 2.37 2.37 0 0 1 2.42 0h4.16a.78.78 0 0 1 .63.33L8.65 2.5h7.1a2.42 2.42 0 0 1 2.42 2.42v9.16a2.42 2.42 0 0 1-2.42 2.42ZM2.42 1.5a.92.92 0 0 0-.92.92v11.66a.92.92 0 0 0 .92.92h13.33a.92.92 0 0 0 .92-.92V4.92a.92.92 0 0 0-.92-.92h-7.5a.76.76 0 0 1-.62-.33L6.18 1.5Z"/>
  </symbol>
  <symbol id="settings" viewBox="0 0 19.83 19.81">
    <path
      d="M9.92 13.14a3.25 3.25 0 1 1 3.25-3.25 3.24 3.24 0 0 1-3.25 3.25Zm0-5a1.75 1.75 0 1 0 1.75 1.75 1.75 1.75 0 0 0-1.75-1.75Z"/>
    <path
      d="M10 19.81a2.45 2.45 0 0 1-1.71-.71 2.4 2.4 0 0 1-.7-1.71.73.73 0 0 0-.12-.4.6.6 0 0 0-.29-.23.79.79 0 0 0-.41-.06.7.7 0 0 0-.33.17 2.49 2.49 0 0 1-.82.57A2.45 2.45 0 0 1 3 16.92a2.47 2.47 0 0 1-.52-.79 2.23 2.23 0 0 1-.19-.92 2.31 2.31 0 0 1 .19-.93A2.42 2.42 0 0 1 3 13.5a.71.71 0 0 0 .21-.37.59.59 0 0 0 0-.37.63.63 0 0 0-.23-.28.59.59 0 0 0-.34-.1h-.22A2.42 2.42 0 0 1 0 10a2.42 2.42 0 0 1 2.42-2.46.66.66 0 0 0 .4-.11.68.68 0 0 0 .23-.3.74.74 0 0 0 .06-.4.65.65 0 0 0-.17-.33 2.42 2.42 0 0 1-.57-.83 2.39 2.39 0 0 1-.18-.92 2.48 2.48 0 0 1 .18-.93 2.42 2.42 0 0 1 .52-.78 2.49 2.49 0 0 1 .79-.53 2.47 2.47 0 0 1 1.85 0 2.35 2.35 0 0 1 .78.53.71.71 0 0 0 .37.21.67.67 0 0 0 .37 0 .49.49 0 0 1 .16 0 .66.66 0 0 0 .19-.18.74.74 0 0 0 .1-.35v-.23a2.37 2.37 0 0 1 .71-1.7 2.45 2.45 0 0 1 3.41 0 2.37 2.37 0 0 1 .71 1.7.68.68 0 0 0 .11.42.61.61 0 0 0 .27.23.6.6 0 0 0 .37 0 .64.64 0 0 0 .33-.16 2.42 2.42 0 0 1 .83-.57 2.38 2.38 0 0 1 1.85 0 2.42 2.42 0 0 1 .78.52 2.39 2.39 0 0 1 .71 1.71 2.48 2.48 0 0 1-.18.93 2.45 2.45 0 0 1-.53.78.67.67 0 0 0-.21.37.63.63 0 0 0 0 .36.55.55 0 0 1 .05.17.66.66 0 0 0 .19.18.6.6 0 0 0 .34.11h.14a2.41 2.41 0 0 1 1.7 4.12 2.43 2.43 0 0 1-1.7.71.76.76 0 0 0-.42.1.7.7 0 0 0-.23.28.56.56 0 0 0 0 .36.61.61 0 0 0 .16.32 2.63 2.63 0 0 1 .57.83 2.31 2.31 0 0 1 .19.93 2.23 2.23 0 0 1-.19.92 2.36 2.36 0 0 1-.52.79 2.43 2.43 0 0 1-2.64.52 2.54 2.54 0 0 1-.78-.52.67.67 0 0 0-.37-.21.56.56 0 0 0-.36 0 .66.66 0 0 0-.29.23.68.68 0 0 0-.1.35v.13a2.42 2.42 0 0 1-2.4 2.51Zm-3.14-4.62a2 2 0 0 1 .86.19 2 2 0 0 1 1 .73 2.12 2.12 0 0 1 .4 1.19 1 1 0 0 0 .26.74.94.94 0 0 0 1.3 0 .88.88 0 0 0 .27-.65v-.14a2.11 2.11 0 0 1 .35-1.17 2.18 2.18 0 0 1 .94-.78 2.24 2.24 0 0 1 1.23-.14 2.16 2.16 0 0 1 1.11.57 1.16 1.16 0 0 0 .35.26.94.94 0 0 0 .7 0 .92.92 0 0 0 .5-.5.91.91 0 0 0 0-.7 1.21 1.21 0 0 0-.2-.3 2.16 2.16 0 0 1-.63-1.16 2 2 0 0 1 .15-1.24 2.09 2.09 0 0 1 1.94-1.28 1 1 0 0 0 .72-.27.89.89 0 0 0 .27-.65.9.9 0 0 0-.96-.89h-.14a2.1 2.1 0 0 1-1.17-.36 2.07 2.07 0 0 1-.78-.93.83.83 0 0 1-.06-.21 2.23 2.23 0 0 1-.09-1.09 2.1 2.1 0 0 1 .58-1.1 1.12 1.12 0 0 0 .24-.38.91.91 0 0 0 0-.7 1 1 0 0 0-.2-.3 1 1 0 0 0-.3-.2.94.94 0 0 0-.7 0 1.21 1.21 0 0 0-.3.2 2.16 2.16 0 0 1-1.16.63 2 2 0 0 1-1.24-.15 2.15 2.15 0 0 1-.92-.77 2.12 2.12 0 0 1-.36-1.17 1 1 0 0 0-.27-.73.93.93 0 0 0-1.29 0 .91.91 0 0 0-.26.65v.15a2.11 2.11 0 0 1-1.29 1.94.66.66 0 0 1-.2.06 2.25 2.25 0 0 1-1.09.09 2.1 2.1 0 0 1-1.11-.58A1.1 1.1 0 0 0 5 3.8a1 1 0 0 0-.71 0 .95.95 0 0 0-.49.5.91.91 0 0 0 0 .7.83.83 0 0 0 .2.3 2.14 2.14 0 0 1 .62 1.16 2.11 2.11 0 0 1-.18 1.24 2.17 2.17 0 0 1-.74 1 2.11 2.11 0 0 1-1.19.3 1 1 0 0 0-.74.27 1 1 0 0 0-.27.73.92.92 0 0 0 .92.92h.14a2.11 2.11 0 0 1 1.17.35 2.21 2.21 0 0 1 .78.93 2.16 2.16 0 0 1 .14 1.23 2.12 2.12 0 0 1-.57 1.11 1.07 1.07 0 0 0-.26.36.91.91 0 0 0 0 .7 1.21 1.21 0 0 0 .2.3 1 1 0 0 0 .3.19.85.85 0 0 0 .7 0 .83.83 0 0 0 .3-.2 2.14 2.14 0 0 1 1.16-.62 1.69 1.69 0 0 1 .38-.08Zm9.22-2.8Z"/>
  </symbol>
  <symbol id="logout" viewBox="0 0 16.5 16.5">
    <path
      d="M14.08 16.5h-3.33a.75.75 0 0 1 0-1.5h3.33a.92.92 0 0 0 .92-.92V2.42a.92.92 0 0 0-.92-.92h-3.33A.76.76 0 0 1 10 .75a.76.76 0 0 1 .75-.75h3.33a2.37 2.37 0 0 1 1.71.71 2.37 2.37 0 0 1 .71 1.71v11.66a2.42 2.42 0 0 1-2.42 2.42ZM4.92 13.17a.77.77 0 0 1-.53-.17L.22 8.78a.75.75 0 0 1 0-1.06l4.17-4.17a.75.75 0 0 1 1.06 1.06L1.81 8.25l3.64 3.64a.75.75 0 0 1 0 1.06.79.79 0 0 1-.53.22Z"/>
    <path d="M10.75 9h-10a.75.75 0 0 1 0-1.5h10a.75.75 0 0 1 0 1.5Z"/>
  </symbol>
  <symbol id="arrow" viewBox="0 0 9.5 5.5">
    <path
      d="M4.75,5.5a.74.74,0,0,1-.53-.22l-4-4A.75.75,0,0,1,1.28.22L4.75,3.69,8.22.22A.75.75,0,0,1,9.28,1.28l-4,4A.74.74,0,0,1,4.75,5.5Z"/>
  </symbol>
  <symbol id="drafts" viewBox="0 0 20 20">
    <path
      d="m19.71 5.29-5-5A1 1 0 0 0 14 0H3a3 3 0 0 0-3 3v14a3 3 0 0 0 3 3h14a3 3 0 0 0 3-3V6a1 1 0 0 0-.29-.71ZM14 18H6v-6h8Zm4-1a1 1 0 0 1-1 1h-1v-7a1 1 0 0 0-1-1H5a1 1 0 0 0-1 1v7H3a1.05 1.05 0 0 1-.71-.29A1.05 1.05 0 0 1 2 17V3a1.05 1.05 0 0 1 .29-.71A1.05 1.05 0 0 1 3 2h1v4a1 1 0 0 0 1 1h8a1 1 0 0 0 0-2H6V2h7.59L18 6.41Z"/>
  </symbol>
  <symbol id="archive" viewBox="0 0 24 20">
    <path
      d="M23 0H1a1 1 0 0 0-1 1v5a1 1 0 0 0 1 1h1v12a1 1 0 0 0 1 1h18a1 1 0 0 0 1-1V7h1a1 1 0 0 0 1-1V1a1 1 0 0 0-1-1Zm-3 18H4V7h16Zm2-13H2V2h20Z"/>
    <path d="M10 11h4a1 1 0 0 0 0-2h-4a1 1 0 0 0 0 2Z"/>
  </symbol>
  <symbol id="eye" viewBox="0 0 24 18">
    <path
      d="M12 18C4.47 18 .28 9.8.11 9.45a1 1 0 0 1 0-.9C.28 8.2 4.47 0 12 0s11.72 8.2 11.89 8.55a1 1 0 0 1 0 .9C23.72 9.8 19.53 18 12 18ZM2.14 9c.94 1.61 4.48 7 9.86 7s8.92-5.39 9.86-7c-.94-1.61-4.48-7-9.86-7S3.08 7.39 2.14 9Z"/>
    <path d="M12 13a4 4 0 1 1 4-4 4 4 0 0 1-4 4Zm0-6a2 2 0 1 0 2 2 2 2 0 0 0-2-2Z"/>
  </symbol>
  <symbol id="signature" viewBox="0 0 20 19.11">
    <path
      d="M19 19.11h-9a1 1 0 0 1 0-2h9a1 1 0 0 1 0 2ZM1 19.11a1 1 0 0 1-.71-.29 1 1 0 0 1-.29-.95l1-4a1 1 0 0 1 .26-.47L13.79.9a3.16 3.16 0 0 1 4.42 0 3.11 3.11 0 0 1 .67 1 3 3 0 0 1 .24 1.19 3.13 3.13 0 0 1-.24 1.2 3 3 0 0 1-.67 1L5.71 17.82a1 1 0 0 1-.47.26l-4 1a1 1 0 0 1-.24.03Zm1.9-4.49-.53 2.12 2.12-.53L16.79 3.9a1 1 0 0 0 .21-.36 1.2 1.2 0 0 0 0-.86 1.11 1.11 0 0 0-.25-.36.88.88 0 0 0-.36-.24 1.14 1.14 0 0 0-1.22.24Zm11.6-13Z"/>
  </symbol>
  <symbol id="language" viewBox="0 0 22.5 22.13">
    <path
      d="M14.25 7.88V0H0v14.25h8.25v7.87H22.5V7.88Zm-8-4.5-2.4 6.71h1.59L5.82 9h2.43v3.75H1.5V1.5h11.25v6.38H9.62l-1.57-4.5ZM7.9 7.5H6.35l.77-2.22ZM21 20.62H9.75V9.38H21Z"/>
    <path
      d="M14.13 16.15a6.08 6.08 0 0 0 .47.66 3.86 3.86 0 0 1-1.85.44v1.5a5.27 5.27 0 0 0 3-.88 5.27 5.27 0 0 0 3 .88v-1.5a3.86 3.86 0 0 1-1.85-.44 6.08 6.08 0 0 0 .47-.66 7.9 7.9 0 0 0 .94-2.27h.81v-1.5H16.5v-1.13H15v1.13h-2.62v1.5h.81a7.9 7.9 0 0 0 .94 2.27Zm2.63-2.27a6.68 6.68 0 0 1-.66 1.47 4.34 4.34 0 0 1-.35.49 2.83 2.83 0 0 1-.32-.45 6.06 6.06 0 0 1-.69-1.51Z"/>
  </symbol>
  <symbol id="themes" viewBox="0 0 268.9 269.22">
    <path
      d="M201.74 57.44C192.42 23 162.5.41 125.53 0h-1.42C85.57 0 53.3 16.34 28.19 48.56 9.1 73.05.41 101.58 0 141.09c1.11 39.51 20.11 75.42 53.5 101.14 15.59 12 32.07 18.09 49 18.09a74 74 0 0 0 14.21-1.41c17.67-3.49 28.2-12.43 32.17-27.33 2.67-10 1.45-20.24-3.83-32.21l-.8-1.81a171.27 171.27 0 0 1-7.87-20c-3.41-11.42-.54-18.31 10.24-24.57 1.93-1.12 3.87-2.22 5.82-3.32l.25-.15c6.07-3.45 12.36-7 18.26-11.07 27.41-18.79 39.22-49.84 30.79-81.01Zm-87.59 103c-2.14 7.77-1.58 16.16 1.71 25.66 1.45 4.17 3.17 8.27 4.85 12.28 1.33 3.16 2.71 6.43 3.91 9.67 1.59 4.3 2.94 8.18 3.25 12 .74 8.82-2.83 13.86-11.59 16.34a50.33 50.33 0 0 1-13.73 2 48.22 48.22 0 0 1-16.86-3.09c-15.64-5.82-29-16.48-40.91-32.6-15.12-20.55-22.78-43.42-22.72-68.01.43-31 9.21-56.15 26.85-76.81 20.29-23.77 44.93-35.82 73.23-35.82h3c25.26.73 42.9 11.73 52.43 32.68 9.18 20.17 6.85 48.28-19 65.58-5.18 3.45-10.72 6.61-16.08 9.67l-.17.1c-2.75 1.57-5.6 3.19-8.38 4.85a41.86 41.86 0 0 0-19.79 25.5Z"/>
    <path
      d="M270.13 71.29A17.77 17.77 0 0 0 257.67 66a19.87 19.87 0 0 0-6.34 1.08c-5.83 1.94-9 6.32-11.23 10.36C217.25 117.81 198.37 151 180.67 182a10.6 10.6 0 0 1-3.6 3.57c-15.17 9-21.49 24.46-16.91 41.39.67 2.46 1.11 5.1 1.54 7.66v.22c.18 1 .35 2.08.54 3.12a55.61 55.61 0 0 1-6.2 21.61c-3 5.86-1.12 10.07.95 12.57a10.65 10.65 0 0 0 8.37 4.11 12.48 12.48 0 0 0 3.83-.63c2.67-.86 5.36-1.69 8.11-2.55 5.44-1.69 11.06-3.44 16.56-5.4 12-4.27 22.59-11.93 31.52-22.76 9.5-11.52 12.41-23.51 8.92-36.63a4.58 4.58 0 0 1 .38-1.85 8610 8610 0 0 1 8.86-24.85l.06-.16c4.67-13.06 9.5-26.56 14.14-39.89 4-11.38 7.83-23 11.56-34.25l.15-.44q2.61-7.86 5.23-15.71c2.59-7.64 1-14.48-4.55-19.84ZM211.08 227c-4 6.75-10 12.28-18.2 16.92a80.12 80.12 0 0 1-9.94 4.41 54.89 54.89 0 0 0 .73-8.8 80 80 0 0 0-1.94-17c-2-8.33-.64-13 5.05-17.24a16.48 16.48 0 0 1 9.81-3.15 16.77 16.77 0 0 1 9.09 2.61c8.32 5.34 10.39 13.87 5.4 22.25Zm32.53-112.14L219 187l-13.52-5.95ZM166.46 77.24A41.41 41.41 0 1 0 125 118.65h.06a41.55 41.55 0 0 0 41.39-41.41Zm-22 0a19.47 19.47 0 0 1-19.4 19.39 19.23 19.23 0 0 1-13.7-5.75 19.34 19.34 0 0 1 13.76-33.05h.1a19.38 19.38 0 0 1 19.23 19.43ZM70 169.67a34.31 34.31 0 0 0 0-68.62 34.31 34.31 0 0 0-.28 68.62Zm8.79-43a12.4 12.4 0 0 1-8.73 21h-.27a12.42 12.42 0 0 1-12.16-12.39 12.11 12.11 0 0 1 3.63-8.66 12.34 12.34 0 0 1 8.74-3.57h.16a12.1 12.1 0 0 1 8.66 3.64ZM84 170.27h-.19A24.77 24.77 0 0 0 59 194.73a24.28 24.28 0 0 0 7.11 17.38 24.59 24.59 0 0 0 17.55 7.33 24.59 24.59 0 0 0 17.53-7.26 24.33 24.33 0 0 0 7.14-17.38A24.72 24.72 0 0 0 84 170.27Zm-.28 18.6a6 6 0 0 1 6 6 6 6 0 0 1-5.91 6.1 5.94 5.94 0 0 1-4.2-1.71 6 6 0 0 1-1.82-4.3 5.93 5.93 0 0 1 5.89-6.09Z"/>
  </symbol>
  <symbol id="confirm" viewBox="0 0 14.17 13.5">
    <path
      d="M6.75 8.83a.74.74 0 0 1-.53-.22l-2-2a.75.75 0 0 1 1.06-1.06L6.75 7 12.89.89a.74.74 0 0 1 1.11 0A.75.75 0 0 1 14 2L7.28 8.61a.74.74 0 0 1-.53.22Z"/>
    <path
      d="M11.42 13.5H2.08A2.08 2.08 0 0 1 0 11.42V2.08A2.08 2.08 0 0 1 2.08 0h7.34a.76.76 0 0 1 .75.75.76.76 0 0 1-.75.75H2.08a.58.58 0 0 0-.58.58v9.34a.58.58 0 0 0 .58.58h9.34a.58.58 0 0 0 .58-.58V6.75a.75.75 0 0 1 1.5 0v4.67a2.08 2.08 0 0 1-2.08 2.08Z"/>
  </symbol>
  <symbol id="search" viewBox="0 0 13.5 13.5">
    <path
      d="M6.08 12.17a6.09 6.09 0 1 1 6.09-6.09 6.09 6.09 0 0 1-6.09 6.09Zm0-10.67a4.59 4.59 0 1 0 4.59 4.58A4.59 4.59 0 0 0 6.08 1.5Z"/>
    <path
      d="M12.75 13.5a.74.74 0 0 1-.53-.22l-2.9-2.9a.75.75 0 0 1 1.06-1.06l2.9 2.9a.75.75 0 0 1 0 1.06.74.74 0 0 1-.53.22Z"/>
  </symbol>
  <symbol id="discard" viewBox="0 0 14.83 14.83">
    <path
      d="M7.42 0a7.42 7.42 0 1 0 7.41 7.42A7.43 7.43 0 0 0 7.42 0Zm0 13.33a5.92 5.92 0 1 1 5.91-5.91 5.92 5.92 0 0 1-5.91 5.91Z"/>
    <path
      d="M10 4.89a.74.74 0 0 0-1.06 0L7.42 6.36 6 4.89A.75.75 0 0 0 4.89 6l1.47 1.42-1.47 1.47a.74.74 0 0 0 0 1.06.75.75 0 0 0 .53.22A.79.79 0 0 0 6 10l1.42-1.52L8.89 10a.75.75 0 0 0 .53.22A.79.79 0 0 0 10 10a.75.75 0 0 0 0-1.06L8.48 7.42 10 6a.75.75 0 0 0 0-1.11Z"/>
  </symbol>
  <symbol id="send-mail" viewBox="0 0 10.83 10.83">
    <path
      d="M10.83 5.42a.72.72 0 0 0-.06-.29.56.56 0 0 0-.16-.24L6 .22a.75.75 0 0 0-1.06 0 .74.74 0 0 0 0 1.06l3.33 3.39H.75a.75.75 0 0 0 0 1.5h7.52L4.89 9.55a.74.74 0 0 0 0 1.06.71.71 0 0 0 .53.22.74.74 0 0 0 .58-.22L10.61 6a.63.63 0 0 0 .16-.24.75.75 0 0 0 .06-.34Z"/>
  </symbol>
  <symbol id="checked-checkbox" viewBox="0 0 8.05 7.5">
    <path
      d="M2.8 7.5a.74.74 0 0 1-.6-.3L.15 4.47a.75.75 0 0 1 .15-1 .76.76 0 0 1 1.05.15L2.8 5.5 6.7.3a.75.75 0 0 1 1-.15.76.76 0 0 1 .2 1.05l-4.5 6a.77.77 0 0 1-.6.3Z"/>
  </symbol>
  <symbol id="unlock" viewBox="0 0 13.5 14.84">
    <path
      d="M11.42 6H4.17V4.09a2.58 2.58 0 0 1 .66-1.74 2.64 2.64 0 0 1 1.66-.84 2.58 2.58 0 0 1 2.79 2.06.75.75 0 0 0 .88.59.76.76 0 0 0 .59-.89 4.08 4.08 0 0 0-8.08.82V6h-.59A2.09 2.09 0 0 0 0 8.09v4.66a2.09 2.09 0 0 0 2.08 2.09h9.34a2.09 2.09 0 0 0 2.08-2.09V8.09A2.09 2.09 0 0 0 11.42 6Zm.58 6.75a.58.58 0 0 1-.58.59H2.08a.58.58 0 0 1-.58-.59V8.09a.59.59 0 0 1 .58-.59h9.34a.59.59 0 0 1 .58.59Z"/>
  </symbol>
  <symbol id="lock" viewBox="0 0 13.5 14.83">
    <path
      d="M11.42 6h-.59V4.08A4.1 4.1 0 0 0 9.64 1.2 4.13 4.13 0 0 0 6.75 0a4.08 4.08 0 0 0-4.08 4.08V6h-.59A2.08 2.08 0 0 0 0 8.08v4.67a2.08 2.08 0 0 0 2.08 2.08h9.34a2.08 2.08 0 0 0 2.08-2.08V8.08A2.08 2.08 0 0 0 11.42 6ZM4.17 4.08a2.58 2.58 0 0 1 .75-1.82 2.67 2.67 0 0 1 3.66 0 2.58 2.58 0 0 1 .75 1.82V6H4.17ZM12 12.75a.58.58 0 0 1-.58.58H2.08a.58.58 0 0 1-.58-.58V8.08a.58.58 0 0 1 .58-.58h9.34a.58.58 0 0 1 .58.58Z"/>
  </symbol>
  <symbol id="new-folder" viewBox="0 0 11.5 10.5">
    <path
      d="M11 2a1.74 1.74 0 0 0-1.25-.5h-4.1L4.87.33A.76.76 0 0 0 4.25 0h-2.5A1.74 1.74 0 0 0 0 1.75v7a1.74 1.74 0 0 0 1.75 1.75h8a1.74 1.74 0 0 0 1.75-1.75v-5.5A1.74 1.74 0 0 0 11 2Zm-1 6.75a.24.24 0 0 1-.25.25h-8a.29.29 0 0 1-.18-.07.29.29 0 0 1-.07-.18v-7a.29.29 0 0 1 .07-.18.29.29 0 0 1 .18-.07h2.1l.78 1.17a.76.76 0 0 0 .62.33h4.5a.24.24 0 0 1 .25.25Z"/>
  </symbol>
  <symbol id="add-folder" viewBox="0 0 16.5 15">
    <path
      d="M15.84 2.91a2.27 2.27 0 0 0-1.59-.66H7.9L6.62.33A.76.76 0 0 0 6 0H2.25A2.21 2.21 0 0 0 .66.66 2.21 2.21 0 0 0 0 2.25v10.5a2.27 2.27 0 0 0 .66 1.59 2.21 2.21 0 0 0 1.59.66h12a2.25 2.25 0 0 0 2.25-2.25V4.5a2.21 2.21 0 0 0-.66-1.59ZM15 12.75a.75.75 0 0 1-.75.75h-12a.75.75 0 0 1-.75-.75V2.25a.75.75 0 0 1 .75-.75H5.6l1.28 1.92a.76.76 0 0 0 .62.33h6.75a.75.75 0 0 1 .75.75Z"/>
    <path
      d="M10.5 8.25H9v-1.5a.75.75 0 0 0-1.5 0v1.5H6a.75.75 0 0 0 0 1.5h1.5v1.5a.75.75 0 0 0 1.5 0v-1.5h1.5a.75.75 0 0 0 0-1.5Z"/>
  </symbol>
  <symbol id="delete" viewBox="0 0 15 15">
    <path
      d="M12.75 0H2.25A2.25 2.25 0 0 0 0 2.25v10.5A2.25 2.25 0 0 0 2.25 15h10.5A2.25 2.25 0 0 0 15 12.75V2.25A2.25 2.25 0 0 0 12.75 0Zm.75 12.75a.76.76 0 0 1-.75.75H2.25a.76.76 0 0 1-.75-.75V2.25a.76.76 0 0 1 .75-.75h10.5a.76.76 0 0 1 .75.75Z"/>
    <path
      d="M10.28 4.72a.75.75 0 0 0-1.06 0L7.5 6.44 5.78 4.72a.75.75 0 0 0-1.06 1.06L6.44 7.5 4.72 9.22a.75.75 0 0 0 0 1.06.75.75 0 0 0 1.06 0L7.5 8.56l1.72 1.72a.75.75 0 0 0 1.06 0 .75.75 0 0 0 0-1.06L8.56 7.5l1.72-1.72a.75.75 0 0 0 0-1.06Z"/>
  </symbol>
  <symbol id="checked-bookmark" viewBox="0 0 12 15">
    <path
      d="M11.34.66A2.27 2.27 0 0 0 9.75 0h-7.5A2.21 2.21 0 0 0 .66.66 2.21 2.21 0 0 0 0 2.25v12a.76.76 0 0 0 .41.67.78.78 0 0 0 .78-.06L6 11.42l4.81 3.44a.79.79 0 0 0 .44.14.77.77 0 0 0 .34-.08.76.76 0 0 0 .41-.67v-12a2.21 2.21 0 0 0-.66-1.59Z"/>
  </symbol>
  <symbol id="unchecked-bookmark" viewBox="0 0 12 15">
    <path
      d="M11.25 15a.79.79 0 0 1-.44-.14L6 11.42l-4.81 3.44a.78.78 0 0 1-.78.06.76.76 0 0 1-.41-.67v-12A2.21 2.21 0 0 1 .66.66 2.21 2.21 0 0 1 2.25 0h7.5a2.27 2.27 0 0 1 1.59.66A2.21 2.21 0 0 1 12 2.25v12a.76.76 0 0 1-.41.67.77.77 0 0 1-.34.08ZM6 9.75a.79.79 0 0 1 .44.14l4.06 2.9V2.25a.75.75 0 0 0-.75-.75h-7.5a.75.75 0 0 0-.75.75v10.54l4.06-2.9A.79.79 0 0 1 6 9.75Z"/>
  </symbol>
  <symbol id="half-checkbox" viewBox="0 0 8 1.5">
    <path d="M7.25 0H.75A.76.76 0 0 0 0 .75a.76.76 0 0 0 .75.75h6.5A.76.76 0 0 0 8 .75.76.76 0 0 0 7.25 0Z"/>
  </symbol>
  <symbol id="unarchive" viewBox="0 0 15 16.25">
    <path
      d="M14.25 5a.75.75 0 0 0-.75.75v8.75a.25.25 0 0 1-.25.25H1.75a.25.25 0 0 1-.25-.25V5.75a.75.75 0 0 0-1.5 0v8.75a1.76 1.76 0 0 0 1.75 1.75h11.5A1.76 1.76 0 0 0 15 14.5V5.75a.75.75 0 0 0-.75-.75Z"/>
    <path
      d="m5 4.28 1.75-1.72v4.19a.75.75 0 0 0 1.5 0V2.56L10 4.28a.75.75 0 0 0 1.06 0 .75.75 0 0 0 0-1.06l-3-3a.63.63 0 0 0-.27-.16.73.73 0 0 0-.58 0A.63.63 0 0 0 7 .22l-3 3a.75.75 0 0 0 1 1.06ZM6 11a.75.75 0 0 0 0 1.5h3A.75.75 0 0 0 9 11Z"/>
  </symbol>
  <symbol id="reply" viewBox="0 0 13.5 13.5">
    <path
      d="M12.4 4.85a3.72 3.72 0 0 0-2.65-1.1H2.56L5 1.28A.75.75 0 0 0 4 .22L.22 4a.63.63 0 0 0-.16.24.73.73 0 0 0 0 .58.63.63 0 0 0 .16.18L4 8.78a.75.75 0 0 0 1 0 .75.75 0 0 0 0-1.06L2.56 5.25h7.19a2.21 2.21 0 0 1 1.59.66A2.27 2.27 0 0 1 12 7.5v5.25a.75.75 0 0 0 1.5 0V7.5a3.72 3.72 0 0 0-1.1-2.65Z"/>
  </symbol>
  <symbol id="chain" viewBox="0 0 18 9">
    <path
      d="M13.5 9h-2.25a.75.75 0 0 1 0-1.5h2.25a3 3 0 0 0 1.15-5.77 3 3 0 0 0-1.15-.23h-2.25a.76.76 0 0 1-.75-.75.76.76 0 0 1 .75-.75h2.25a4.62 4.62 0 0 1 1.72.34 4.55 4.55 0 0 1 2.44 2.44 4.52 4.52 0 0 1 0 3.44 4.55 4.55 0 0 1-2.44 2.44A4.62 4.62 0 0 1 13.5 9ZM6.75 9H4.5a4.62 4.62 0 0 1-1.72-.34 4.52 4.52 0 0 1-1.46-1A4.5 4.5 0 0 1 4.5 0h2.25a.76.76 0 0 1 .75.75.76.76 0 0 1-.75.75H4.5a3 3 0 0 0-2.12 5.12 3 3 0 0 0 2.12.88h2.25a.75.75 0 0 1 0 1.5Z"/>
    <path d="M12 5.25H6a.75.75 0 0 1 0-1.5h6a.75.75 0 0 1 0 1.5Z"/>
  </symbol>
  <symbol id="mark-as-read" viewBox="0 0 15.5 16.9">
    <path
      d="M15.49 5.59v-.15c0-.05 0-.09-.05-.13a.83.83 0 0 0-.08-.12.57.57 0 0 0-.11-.11l-7-4.9a.72.72 0 0 0-.86 0L.32 5l-.11.11-.08.12v9.44a2.15 2.15 0 0 0 2.02 2.23h11.2a2.15 2.15 0 0 0 2.15-2.15v-9.1s-.01-.04-.01-.06ZM7.75 1.67 13.94 6l-6.19 4.33L1.56 6Zm5.6 13.73H2.15a.65.65 0 0 1-.65-.65v-7l5.82 4.07a.73.73 0 0 0 .86 0L14 7.79v7a.65.65 0 0 1-.65.61Z"/>
  </symbol>
  <symbol id="pin" viewBox="0 0 13.5 17.5">
    <path
      d="M12.75 6h-2a.75.75 0 0 0 0 1.5H12V16H1.5V7.5h1.25a.75.75 0 0 0 0-1.5h-2a.76.76 0 0 0-.75.75v10a.76.76 0 0 0 .75.75h12a.76.76 0 0 0 .75-.75v-10a.76.76 0 0 0-.75-.75Z"/>
    <path
      d="M6 6.69v6.56a.75.75 0 0 0 1.5 0V6.73A3.42 3.42 0 1 0 6 6.69Zm.82-5.19a1.9 1.9 0 1 1-1.9 1.9 1.9 1.9 0 0 1 1.9-1.9Z"/>
  </symbol>
  <symbol id="edit" viewBox="0 0 14.91 14.89">
    <path
      d="M12.75 7.39a.76.76 0 0 0-.75.75v4.67a.57.57 0 0 1-.17.41.58.58 0 0 1-.41.17H2.08a.58.58 0 0 1-.41-.17.57.57 0 0 1-.17-.41V3.48a.59.59 0 0 1 .17-.42.58.58 0 0 1 .41-.17h4.67a.75.75 0 0 0 0-1.5H2.08A2.08 2.08 0 0 0 .61 2 2.11 2.11 0 0 0 0 3.48v9.33a2.06 2.06 0 0 0 .61 1.47 2 2 0 0 0 1.47.61h9.34a2.08 2.08 0 0 0 2.08-2.08V8.14a.76.76 0 0 0-.75-.75Z"/>
    <path
      d="M14.28.61a2.22 2.22 0 0 0-3.06 0L4.89 7a.65.65 0 0 0-.2.35L4 10a.74.74 0 0 0 .2.71.71.71 0 0 0 .53.22.55.55 0 0 0 .18 0l2.69-.73A.8.8 0 0 0 8 10l6.33-6.34a2.17 2.17 0 0 0 0-3.06Zm-1.06 2L7 8.8l-1.25.31.31-1.25 6.19-6.19a.68.68 0 0 1 .94 0 .7.7 0 0 1 .19.47.67.67 0 0 1-.16.47Z"/>
  </symbol>
  <symbol id="add" viewBox="0 0 15 15">
    <path
      d="M12.75 0H2.25A2.25 2.25 0 0 0 0 2.25v10.5A2.25 2.25 0 0 0 2.25 15h10.5A2.25 2.25 0 0 0 15 12.75V2.25A2.25 2.25 0 0 0 12.75 0Zm.75 12.75a.76.76 0 0 1-.75.75H2.25a.76.76 0 0 1-.75-.75V2.25a.76.76 0 0 1 .75-.75h10.5a.76.76 0 0 1 .75.75Z"/>
    <path
      d="M10.5 6.75H8.25V4.5a.75.75 0 0 0-1.5 0v2.25H4.5a.75.75 0 0 0 0 1.5h2.25v2.25a.75.75 0 0 0 1.5 0V8.25h2.25a.75.75 0 0 0 0-1.5Z"/>
  </symbol>
  <symbol id="move" viewBox="0 0 16.5 16.5">
    <path
      d="M16.44 8a.78.78 0 0 0-.16-.24L14 5.47a.75.75 0 0 0-1 1.06l1 1H9V2.56l1 1a.75.75 0 0 0 1.06 0 .75.75 0 0 0 0-1.06L8.78.22a.63.63 0 0 0-.24-.16.73.73 0 0 0-.54 0 .63.63 0 0 0-.24.16L5.47 2.47a.75.75 0 0 0 1.06 1.06l1-1V7.5H2.56l1-1a.75.75 0 0 0-1.09-1.03L.22 7.72A.63.63 0 0 0 .06 8a.73.73 0 0 0 0 .58.63.63 0 0 0 .16.24L2.47 11a.75.75 0 0 0 1.06 0 .75.75 0 0 0 0-1.06l-1-1H7.5v4.94l-1-1A.75.75 0 0 0 5.47 14l2.25 2.25a.78.78 0 0 0 .24.16.72.72 0 0 0 .29.06.75.75 0 0 0 .29-.06.78.78 0 0 0 .24-.16L11 14a.75.75 0 0 0-1-1l-1 1V9h4.94l-1 1a.75.75 0 0 0 .06 1 .75.75 0 0 0 1 0l2.25-2.25a.78.78 0 0 0 .16-.24.73.73 0 0 0 .03-.51Z"/>
  </symbol>
  <symbol id="everscale" viewBox="0 0 26.3 26.3">
    <path d="m17.1 26.3 9.2-9.1V0H9.1L0 9.2h17.1v17.1z"/>
  </symbol>
  <symbol id="menu" viewBox="0 0 28 18">
    <path
      d="M1 2h26a1 1 0 0 0 0-2H1a1 1 0 0 0 0 2ZM27 8H1a1 1 0 0 0 0 2h26a1 1 0 0 0 0-2ZM27 16H1a1 1 0 0 0 0 2h26a1 1 0 0 0 0-2Z"/>
  </symbol>
  <symbol id="attach" viewBox="0 0 18.11 20">
    <path
      d="M9.76 18.36a5.75 5.75 0 0 1-8.08 0 5.66 5.66 0 0 1 0-8l8.11-8 1-1a4.32 4.32 0 0 1 6.08 0 4.25 4.25 0 0 1 0 6l-8.96 8.72a2.84 2.84 0 0 1-3.95 0 2.76 2.76 0 0 1 0-3.9l1-1 5-4.91 1 1-6 5.9a1.37 1.37 0 0 0 0 2 1.41 1.41 0 0 0 2 0l8.92-8.81a2.82 2.82 0 0 0 0-4 2.86 2.86 0 0 0-4 0l-1 1-8.22 7.96a4.25 4.25 0 0 0 0 6 4.32 4.32 0 0 0 6.08 0l7.1-7 1-1 1 1-1 1-7.09 7Z"/>
  </symbol>
  <symbol id="file" viewBox="0 0 31 36">
    <path d="M30.044 36H0V0h22.752l7.292 7.743V36Zm-.88-1.022V8.918h-7.648V.731H.907v34.247h28.256Z"/>
  </symbol>
  <symbol id="error" viewBox="0 0 24 24">
    <path d="M12 24a12 12 0 1 1 12-12 12 12 0 0 1-12 12Zm0-22a10 10 0 1 0 10 10A10 10 0 0 0 12 2Z"/>
    <path d="M12 13a1 1 0 0 1-1-1V7.6a1 1 0 0 1 2 0V12a1 1 0 0 1-1 1ZM12 17.4a1 1 0 1 1 0-2 1 1 0 0 1 0 2Z"/>
  </symbol>
  <symbol id="pdf" viewBox="0 0 21.65 21.18">
    <path
      d="M21.62 13.59a1.08 1.08 0 0 0-.32-.59 4.39 4.39 0 0 0-2.85-.67 23.06 23.06 0 0 0-3.43.25 9.54 9.54 0 0 1-1.59-1.1 11.57 11.57 0 0 1-2.87-4.46c0-.16.08-.31.11-.45a28.86 28.86 0 0 0 .51-5.22 2.23 2.23 0 0 0-.1-.35L11 .87A1.23 1.23 0 0 0 9.89 0h-.34a1.26 1.26 0 0 0-1.3.82c-.42 1.53 0 3.83.79 6.81l-.2.48C8.28 9.47 7.58 10.84 7 12.05l-.08.15c-.65 1.27-1.24 2.35-1.78 3.26l-.55.3s-1 .52-1.2.65C1.48 17.53.23 18.81 0 19.82a.85.85 0 0 0 .32.92l.56.26a1.65 1.65 0 0 0 .72.17c1.34 0 2.89-1.67 5-5.4a51.19 51.19 0 0 1 7.75-1.84 13.45 13.45 0 0 0 5.65 1.8 2.65 2.65 0 0 0 .67-.07 1.25 1.25 0 0 0 .66-.45 2.41 2.41 0 0 0 .29-1.62ZM1.31 20.16A9.33 9.33 0 0 1 4 17l.51-.47C3 18.92 2 19.87 1.31 20.16ZM9.77.69c.43 0 .68 1.08.7 2.1A4.22 4.22 0 0 1 10 5a11.16 11.16 0 0 1-.36-2.81s-.07-1.5.13-1.5ZM7.24 14.57q.45-.81.93-1.71A30.45 30.45 0 0 0 9.8 9.3a11.81 11.81 0 0 0 2.7 3.35c.13.11.27.23.42.34a33.2 33.2 0 0 0-5.68 1.58Zm13.64-.12a2 2 0 0 1-.75.13 8.76 8.76 0 0 1-3.13-.95c.52 0 1-.06 1.43-.06a5.36 5.36 0 0 1 1.78.2c.79.23.79.59.67.68Z"/>
  </symbol>
  <symbol id="word" viewBox="0 0 366.54 366.63">
    <path
      d="M366.54 36v294.53a.84.84 0 0 1-.08.38A4 4 0 0 0 366 332c-2.4 18-18.9 34.65-42.27 34.59-93.66-.25-187.32-.09-281-.15a48.72 48.72 0 0 1-11-1.06C12.57 361 0 344.73 0 324.49V41.37c0-14.22 6-25.53 17.39-34 5.52-4 11.91-5.84 18.42-7.37h294.76a1 1 0 0 1 .34.06 7 7 0 0 0 1.48.55C343.63 2.53 352.94 8 359 17.55c3.43 5.44 5.08 12 7.51 18.09a.87.87 0 0 1 .03.36ZM182.05 137h2.49q11.91 44.73 23.81 89.46 7.41 27.8 14.92 55.56c.31 1.12 1.46 2.87 2.25 2.89 9.4.19 18.81.13 28.34.13a.9.9 0 0 0 .87-.69C270.88 217 287 150 303.06 82.89a.89.89 0 0 0-.87-1.1h-32.71a.89.89 0 0 0-.88.72Q253.9 156 239.31 228.92l-2.42.08q-19.59-73.4-39.14-146.69a.9.9 0 0 0-.87-.66h-27.21a.89.89 0 0 0-.86.66L129.67 229l-2.43-.08Q112.6 155.74 98 82.5a.91.91 0 0 0-.88-.72H64.36a.9.9 0 0 0-.87 1.11l48.34 201.44a.9.9 0 0 0 .88.68c8.53 0 16.78-.15 25 .07a6.2 6.2 0 0 0 6.18-4.64q13.5-51.31 27.25-102.58 5.45-20.43 10.91-40.86Z"/>
  </symbol>
  <symbol id="excel" viewBox="0 0 366.54 366.63">
    <path
      d="M366.54 35.79v294.94A5.85 5.85 0 0 0 366 332c-2.4 18-18.9 34.65-42.27 34.59-93.66-.25-187.32-.09-281-.15a48.72 48.72 0 0 1-11-1.06C12.57 361 0 344.73 0 324.49V41.37c0-14.22 6-25.53 17.39-34 5.52-4 11.91-5.84 18.42-7.37h294.94a9.59 9.59 0 0 0 1.64.61C343.63 2.53 352.94 8 359 17.55c3.43 5.45 5.08 12.12 7.54 18.24ZM268.63 285c-1-1.64-1.62-2.74-2.31-3.81Q236.16 234.06 205.9 187c-1.87-2.89-1.66-4.78.11-7.53q30.23-46.89 60.21-93.94c.74-1.16 1.4-2.37 2.34-4-12.58 0-24.6.09-36.63-.06-2.82 0-4.41.78-5.86 3.31-13.45 23.47-27 46.86-40.61 70.27-.63 1.09-1.33 2.13-2.22 3.52-.9-1.48-1.59-2.56-2.23-3.66-13.56-23.41-27.16-46.8-40.61-70.28a5.42 5.42 0 0 0-5.59-3.17c-8.46.19-16.94.07-25.41.07H97.92c1 1.64 1.63 2.74 2.31 3.81q30.18 47.16 60.43 94.24c1.87 2.9 1.66 4.79-.11 7.53Q130.32 234 100.33 281c-.74 1.15-1.39 2.36-2.33 4 12.57 0 24.6-.08 36.62.07 2.83 0 4.42-.79 5.86-3.31q20.18-35.22 40.62-70.28c.62-1.08 1.33-2.12 2.21-3.52.91 1.48 1.6 2.56 2.24 3.67q20.34 35.12 40.6 70.27a5.42 5.42 0 0 0 5.59 3.17c8.47-.18 16.94-.07 25.42-.07Z"/>
  </symbol>
  <symbol id="refresh" viewBox="0 0 12.65 13.5">
    <path
      d="M9.46 1.56c0-.24-.08-.44-.11-.64A.76.76 0 0 1 10 0a.74.74 0 0 1 .85.64c.15.85.3 1.71.44 2.56a.75.75 0 0 1-.64.91l-2.56.43a.74.74 0 1 1-.29-1.46c.31-.07.63-.12.94-.17v-.06a8.59 8.59 0 0 0-1.1-.42 4.86 4.86 0 1 0 3.53 5.47.73.73 0 0 1 .83-.67.76.76 0 0 1 .62.94A6.17 6.17 0 0 1 11 11.51a6.21 6.21 0 0 1-4.88 2A6.37 6.37 0 0 1 4.72 1a6.26 6.26 0 0 1 4.57.49Z"/>
  </symbol>
</svg>
